<svg width="442" height="43" viewBox="0 0 442 43" fill="none" xmlns="http://www.w3.org/2000/svg">
<path d="M38.4091 21.6364C38.4091 26.0246 37.5871 29.7831 35.9432 32.9119C34.3125 36.0275 32.0852 38.4138 29.2614 40.071C26.4508 41.7282 23.2623 42.5568 19.696 42.5568C16.1297 42.5568 12.9347 41.7282 10.1108 40.071C7.30019 38.4006 5.07292 36.0076 3.42898 32.892C1.7983 29.7633 0.982955 26.0114 0.982955 21.6364C0.982955 17.2481 1.7983 13.4962 3.42898 10.3807C5.07292 7.25189 7.30019 4.8589 10.1108 3.2017C12.9347 1.54451 16.1297 0.715908 19.696 0.715908C23.2623 0.715908 26.4508 1.54451 29.2614 3.2017C32.0852 4.8589 34.3125 7.25189 35.9432 10.3807C37.5871 13.4962 38.4091 17.2481 38.4091 21.6364ZM30.9915 21.6364C30.9915 18.5473 30.5076 15.9422 29.5398 13.821C28.5852 11.6866 27.2595 10.0758 25.5625 8.98864C23.8655 7.88826 21.91 7.33807 19.696 7.33807C17.482 7.33807 15.5265 7.88826 13.8295 8.98864C12.1326 10.0758 10.8002 11.6866 9.83239 13.821C8.87784 15.9422 8.40057 18.5473 8.40057 21.6364C8.40057 24.7254 8.87784 27.3371 9.83239 29.4716C10.8002 31.5928 12.1326 33.2036 13.8295 34.304C15.5265 35.3911 17.482 35.9347 19.696 35.9347C21.91 35.9347 23.8655 35.3911 25.5625 34.304C27.2595 33.2036 28.5852 31.5928 29.5398 29.4716C30.5076 27.3371 30.9915 24.7254 30.9915 21.6364ZM78.853 1.27273V42H72.2905L53.1001 14.2585H52.7621V42H45.3842V1.27273H51.9865L71.157 29.0341H71.5149V1.27273H78.853ZM86.892 42V1.27273H94.2699V35.8153H112.207V42H86.892ZM125.989 1.27273V42H118.611V1.27273H125.989ZM167.447 1.27273V42H160.884L141.694 14.2585H141.356V42H133.978V1.27273H140.58L159.751 29.0341H160.109V1.27273H167.447ZM175.486 42V1.27273H201.974V7.45739H182.864V18.5142H200.602V24.6989H182.864V35.8153H202.134V42H175.486Z" fill="#2F58EA"/>
<path d="M258.253 15.0142H250.815C250.603 13.7945 250.212 12.714 249.642 11.7727C249.072 10.8182 248.363 10.0095 247.514 9.34659C246.666 8.68371 245.698 8.18655 244.611 7.85511C243.537 7.51042 242.377 7.33807 241.131 7.33807C238.917 7.33807 236.955 7.89489 235.244 9.00852C233.534 10.1089 232.195 11.7263 231.227 13.8608C230.259 15.982 229.776 18.5739 229.776 21.6364C229.776 24.7519 230.259 27.3769 231.227 29.5114C232.208 31.6326 233.547 33.2367 235.244 34.3239C236.955 35.3977 238.91 35.9347 241.111 35.9347C242.33 35.9347 243.471 35.7756 244.531 35.4574C245.605 35.1259 246.566 34.642 247.415 34.0057C248.277 33.3693 248.999 32.5871 249.582 31.6591C250.179 30.7311 250.59 29.6705 250.815 28.4773L258.253 28.517C257.974 30.4527 257.371 32.2689 256.443 33.9659C255.528 35.6629 254.329 37.161 252.844 38.4602C251.359 39.7462 249.622 40.7538 247.634 41.483C245.645 42.1989 243.438 42.5568 241.011 42.5568C237.432 42.5568 234.237 41.7282 231.426 40.071C228.616 38.4138 226.402 36.0208 224.784 32.892C223.167 29.7633 222.358 26.0114 222.358 21.6364C222.358 17.2481 223.173 13.4962 224.804 10.3807C226.435 7.25189 228.655 4.8589 231.466 3.2017C234.277 1.54451 237.458 0.715908 241.011 0.715908C243.278 0.715908 245.386 1.03409 247.335 1.67045C249.284 2.30682 251.021 3.24148 252.545 4.47443C254.07 5.69413 255.323 7.19223 256.304 8.96875C257.298 10.732 257.948 12.7472 258.253 15.0142ZM272.387 1.27273V42H265.009V1.27273H272.387ZM313.845 1.27273V42H307.283L288.092 14.2585H287.754V42H280.376V1.27273H286.979L306.149 29.0341H306.507V1.27273H313.845ZM321.884 42V1.27273H348.373V7.45739H329.262V18.5142H347.001V24.6989H329.262V35.8153H348.532V42H321.884ZM355.9 1.27273H364.928L377.019 30.7841H377.496L389.587 1.27273H398.616V42H391.536V14.0199H391.158L379.903 41.8807H374.613L363.357 13.9602H362.979V42H355.9V1.27273ZM411.88 42H404.005L418.343 1.27273H427.451L441.809 42H433.934L423.056 9.625H422.738L411.88 42ZM412.138 26.0312H433.616V31.9574H412.138V26.0312Z" fill="white"/>
</svg>
